<svg width="50" height="52" viewBox="0 0 50 52" fill="none" xmlns="http://www.w3.org/2000/svg">
<path d="M6.04834 0.499756H48.9624V50.7853H6.04834C3.01077 50.7853 0.54834 48.3228 0.54834 45.2853V5.99975C0.54834 2.96219 3.01077 0.499756 6.04834 0.499756Z" fill="#C4C4C4" stroke="#BABABA"/>
<path d="M11.5006 31.3398V16.7944H16.9551C18.0725 16.7944 19.01 16.9885 19.7676 17.3768C20.5299 17.765 21.1052 18.3095 21.4935 19.0103C21.8865 19.7063 22.083 20.5183 22.083 21.4464C22.083 22.3791 21.8841 23.1888 21.4864 23.8754C21.0934 24.5572 20.5134 25.0851 19.7463 25.4592C18.9793 25.8285 18.037 26.0131 16.9196 26.0131H13.0347V23.8256H16.5645C17.2179 23.8256 17.7529 23.7357 18.1696 23.5558C18.5863 23.3711 18.894 23.1036 19.0929 22.7532C19.2965 22.3981 19.3983 21.9625 19.3983 21.4464C19.3983 20.9303 19.2965 20.4899 19.0929 20.1254C18.8893 19.756 18.5792 19.4767 18.1625 19.2873C17.7458 19.0932 17.2084 18.9961 16.5503 18.9961H14.1355V31.3398H11.5006ZM19.0148 24.7489L22.6156 31.3398H19.6753L16.1384 24.7489H19.0148ZM24.3948 35.4308V20.4308H26.9232V22.2347H27.0723C27.2049 21.9696 27.3919 21.6879 27.6334 21.3896C27.8749 21.0865 28.2016 20.8285 28.6135 20.6154C29.0254 20.3976 29.551 20.2887 30.1902 20.2887C31.033 20.2887 31.793 20.5041 32.47 20.935C33.1519 21.3612 33.6916 21.9933 34.0894 22.8313C34.4918 23.6647 34.693 24.6874 34.693 25.8995C34.693 27.0974 34.4966 28.1154 34.1036 28.9535C33.7106 29.7915 33.1755 30.4308 32.4984 30.8711C31.8214 31.3114 31.0543 31.5316 30.1973 31.5316C29.5723 31.5316 29.0538 31.4274 28.6419 31.2191C28.23 31.0108 27.8985 30.7598 27.6476 30.4663C27.4014 30.168 27.2096 29.8862 27.0723 29.6211H26.9658V35.4308H24.3948ZM26.9161 25.8853C26.9161 26.5908 27.0155 27.2087 27.2144 27.739C27.418 28.2693 27.7091 28.6836 28.0879 28.9819C28.4715 29.2754 28.9355 29.4222 29.48 29.4222C30.0482 29.4222 30.524 29.2707 30.9075 28.9677C31.2911 28.6599 31.5799 28.2409 31.774 27.7106C31.9729 27.1755 32.0723 26.5671 32.0723 25.8853C32.0723 25.2082 31.9752 24.6069 31.7811 24.0813C31.587 23.5558 31.2982 23.1438 30.9146 22.8455C30.5311 22.5472 30.0529 22.3981 29.48 22.3981C28.9307 22.3981 28.4644 22.5425 28.0808 22.8313C27.6973 23.1201 27.4061 23.525 27.2073 24.0458C27.0131 24.5666 26.9161 25.1798 26.9161 25.8853Z" fill="#6F7277"/>
</svg>


