<svg width="41" height="41" viewBox="0 0 41 41" fill="none" xmlns="http://www.w3.org/2000/svg">
<path fill-rule="evenodd" clip-rule="evenodd" d="M20.5845 19.226C22.1545 19.226 23.4272 17.9533 23.4272 16.3833C23.4272 14.8133 22.1545 13.5405 20.5845 13.5405C19.0144 13.5405 17.7417 14.8133 17.7417 16.3833C17.7417 17.9533 19.0144 19.226 20.5845 19.226ZM20.5845 22.0688C23.7245 22.0688 26.27 19.5233 26.27 16.3833C26.27 13.2433 23.7245 10.6978 20.5845 10.6978C17.4444 10.6978 14.8989 13.2433 14.8989 16.3833C14.8989 19.5233 17.4444 22.0688 20.5845 22.0688Z" fill="#000D39"/>
<circle cx="20.7718" cy="20.8794" r="19.576" stroke="black"/>
<path fill-rule="evenodd" clip-rule="evenodd" d="M20.5845 22.7977C16.3978 22.7977 13.0038 26.1917 13.0038 30.3785H9.97144C9.97144 24.517 14.7231 19.7654 20.5845 19.7654C26.446 19.7654 31.1977 24.517 31.1977 30.3785H28.1653C28.1653 26.1917 24.7713 22.7977 20.5845 22.7977Z" fill="#000D39"/>
</svg>
